<svg xmlns="http://www.w3.org/2000/svg" width="980" height="720" fill="none" viewBox="0 0 980 720"><defs><marker id="arrowBlue" markerHeight="7" markerUnits="strokeWidth" markerWidth="10" orient="auto" refX="9" refY="3.5"><polygon fill="#476088" points="0 0 10 3.5 0 7"/></marker><marker id="arrowGreen" markerHeight="7" markerUnits="strokeWidth" markerWidth="10" orient="auto" refX="9" refY="3.5"><polygon fill="#70AF40" points="0 0 10 3.5 0 7"/></marker></defs><rect width="900" height="590" x="40" y="40" fill="none" stroke="#94A3B8" stroke-dasharray="12 6" stroke-width="3" rx="24" ry="24"/><text x="490" y="665" fill="#94A3B8" font-family="system-ui, -apple-system, sans-serif" font-size="26" font-weight="700" text-anchor="middle">Synthetic Monorepo</text><rect width="260" height="200" x="80" y="70" fill="none" stroke="#9CA3AF" stroke-width="2" rx="16" ry="16"/><text x="210" y="100" fill="#9CA3AF" font-family="system-ui, -apple-system, sans-serif" font-size="14" font-weight="600" text-anchor="middle">Monorepo A</text><circle cx="140" cy="165" r="38" fill="#476088"/><text x="140" y="161" fill="#fff" font-family="system-ui, -apple-system, sans-serif" font-size="13" font-weight="600" text-anchor="middle">App 1</text><text x="140" y="178" fill="#CBD5E1" font-family="system-ui, -apple-system, sans-serif" font-size="11" text-anchor="middle">frontend</text><circle cx="270" cy="145" r="32" fill="#70AF40"/><text x="270" y="141" fill="#fff" font-family="system-ui, -apple-system, sans-serif" font-size="13" font-weight="600" text-anchor="middle">Lib A</text><text x="270" y="157" fill="#E8F5E9" font-family="system-ui, -apple-system, sans-serif" font-size="11" text-anchor="middle">utils</text><circle cx="248" cy="222" r="28" fill="#70AF40"/><text x="248" y="218" fill="#fff" font-family="system-ui, -apple-system, sans-serif" font-size="12" font-weight="600" text-anchor="middle">Lib B</text><text x="248" y="233" fill="#E8F5E9" font-family="system-ui, -apple-system, sans-serif" font-size="10" text-anchor="middle">ui</text><line x1="175" x2="238" y1="155" y2="143" stroke="#9CA3AF" stroke-width="1.5" marker-end="url(#arrowBlue)" opacity=".4"/><line x1="165" x2="225" y1="190" y2="212" stroke="#9CA3AF" stroke-width="1.5" marker-end="url(#arrowBlue)" opacity=".4"/><rect width="260" height="200" x="640" y="70" fill="none" stroke="#9CA3AF" stroke-width="2" rx="16" ry="16"/><text x="770" y="100" fill="#9CA3AF" font-family="system-ui, -apple-system, sans-serif" font-size="14" font-weight="600" text-anchor="middle">Monorepo B</text><circle cx="710" cy="170" r="38" fill="#476088"/><text x="710" y="166" fill="#fff" font-family="system-ui, -apple-system, sans-serif" font-size="13" font-weight="600" text-anchor="middle">App 2</text><text x="710" y="183" fill="#CBD5E1" font-family="system-ui, -apple-system, sans-serif" font-size="11" text-anchor="middle">backend</text><circle cx="840" cy="185" r="32" fill="#70AF40"/><text x="840" y="181" fill="#fff" font-family="system-ui, -apple-system, sans-serif" font-size="13" font-weight="600" text-anchor="middle">Lib C</text><text x="840" y="197" fill="#E8F5E9" font-family="system-ui, -apple-system, sans-serif" font-size="11" text-anchor="middle">auth</text><line x1="745" x2="808" y1="175" y2="182" stroke="#9CA3AF" stroke-width="1.5" marker-end="url(#arrowBlue)" opacity=".4"/><circle cx="490" cy="340" r="38" fill="#70AF40"/><text x="490" y="336" fill="#fff" font-family="system-ui, -apple-system, sans-serif" font-size="13" font-weight="600" text-anchor="middle">Lib D</text><text x="490" y="352" fill="#E8F5E9" font-family="system-ui, -apple-system, sans-serif" font-size="11" text-anchor="middle">shared</text><text x="490" y="390" fill="#9CA3AF" font-family="system-ui, -apple-system, sans-serif" font-size="11" font-weight="500" text-anchor="middle">standalone repo</text><circle cx="200" cy="500" r="42" fill="#476088"/><text x="200" y="496" fill="#fff" font-family="system-ui, -apple-system, sans-serif" font-size="13" font-weight="600" text-anchor="middle">App 3</text><text x="200" y="513" fill="#CBD5E1" font-family="system-ui, -apple-system, sans-serif" font-size="11" text-anchor="middle">mobile</text><text x="200" y="554" fill="#9CA3AF" font-family="system-ui, -apple-system, sans-serif" font-size="11" font-weight="500" text-anchor="middle">standalone repo</text><circle cx="490" cy="520" r="32" fill="#70AF40"/><text x="490" y="516" fill="#fff" font-family="system-ui, -apple-system, sans-serif" font-size="13" font-weight="600" text-anchor="middle">Lib E</text><text x="490" y="532" fill="#E8F5E9" font-family="system-ui, -apple-system, sans-serif" font-size="11" text-anchor="middle">design</text><text x="490" y="564" fill="#9CA3AF" font-family="system-ui, -apple-system, sans-serif" font-size="11" font-weight="500" text-anchor="middle">standalone repo</text><circle cx="770" cy="500" r="42" fill="#476088"/><text x="770" y="496" fill="#fff" font-family="system-ui, -apple-system, sans-serif" font-size="13" font-weight="600" text-anchor="middle">App 4</text><text x="770" y="513" fill="#CBD5E1" font-family="system-ui, -apple-system, sans-serif" font-size="11" text-anchor="middle">API</text><text x="770" y="554" fill="#9CA3AF" font-family="system-ui, -apple-system, sans-serif" font-size="11" font-weight="500" text-anchor="middle">standalone repo</text><path fill="none" stroke="#476088" stroke-width="2.5" marker-end="url(#arrowBlue)" d="M 675 185 C 620 240, 560 280, 525 325"/><path fill="none" stroke="#70AF40" stroke-width="2" marker-end="url(#arrowGreen)" d="M 300 155 C 370 200, 420 260, 458 322"/><path fill="none" stroke="#476088" stroke-width="2.5" marker-end="url(#arrowBlue)" d="M 210 458 C 220 380, 230 320, 242 252"/><path fill="none" stroke="#476088" stroke-width="2.5" marker-end="url(#arrowBlue)" d="M 242 500 C 320 490, 400 500, 458 515"/><path fill="none" stroke="#476088" stroke-width="2.5" marker-end="url(#arrowBlue)" d="M 790 458 C 805 380, 820 310, 835 217"/><path fill="none" stroke="#476088" stroke-width="2.5" marker-end="url(#arrowBlue)" d="M 730 490 C 650 460, 570 410, 525 358"/><path fill="none" stroke="#476088" stroke-width="2" marker-end="url(#arrowBlue)" d="M 728 505 C 660 510, 580 515, 522 518"/><path fill="none" stroke="#70AF40" stroke-width="2" marker-end="url(#arrowGreen)" d="M 525 330 C 620 300, 740 260, 812 200"/></svg>