<svg xmlns="http://www.w3.org/2000/svg" width="400" height="220" font-family="system-ui, -apple-system, sans-serif" font-size="13" viewBox="0 0 400 220"><rect width="100" height="36" x="10" y="10" fill="#f5f5f5" stroke="#888" stroke-width="1" rx="3"/><text x="60" y="33" text-anchor="middle">app-a-e2e</text><rect width="100" height="36" x="150" y="10" fill="#f5f5f5" stroke="#888" stroke-width="1" rx="3"/><text x="200" y="33" text-anchor="middle">app-b2-e2e</text><rect width="100" height="36" x="290" y="10" fill="#f5f5f5" stroke="#888" stroke-width="1" rx="3"/><text x="340" y="33" text-anchor="middle">app-b1-e2e</text><rect width="100" height="36" x="10" y="90" fill="#f5f5f5" stroke="#888" stroke-width="1" rx="3"/><text x="60" y="113" text-anchor="middle">app-a</text><rect width="100" height="36" x="150" y="90" fill="#f5f5f5" stroke="#888" stroke-width="1" rx="3"/><text x="200" y="113" text-anchor="middle">app-b2</text><rect width="100" height="36" x="290" y="90" fill="#f5f5f5" stroke="#888" stroke-width="1" rx="3"/><text x="340" y="113" text-anchor="middle">app-b1</text><ellipse cx="230" cy="185" fill="#fff3cd" stroke="#d4a017" stroke-width="1.5" rx="70" ry="22"/><text x="230" y="190" text-anchor="middle">shared-b</text><marker id="arrow" markerHeight="7" markerWidth="7" orient="auto-start-reverse" refX="9" refY="5" viewBox="0 0 10 10"><path fill="#555" d="M 0 0 L 10 5 L 0 10 z"/></marker><line x1="60" x2="60" y1="46" y2="88" stroke="#555" stroke-width="1.2" marker-end="url(#arrow)"/><line x1="200" x2="200" y1="46" y2="88" stroke="#555" stroke-width="1.2" marker-end="url(#arrow)"/><line x1="340" x2="340" y1="46" y2="88" stroke="#555" stroke-width="1.2" marker-end="url(#arrow)"/><line x1="200" x2="218" y1="126" y2="162" stroke="#555" stroke-width="1.2" marker-end="url(#arrow)"/><line x1="340" x2="248" y1="126" y2="164" stroke="#555" stroke-width="1.2" marker-end="url(#arrow)"/></svg>