<svg xmlns="http://www.w3.org/2000/svg" width="420" height="340" font-family="system-ui, -apple-system, sans-serif" font-size="13" viewBox="0 0 420 340"><marker id="arrow" markerHeight="7" markerWidth="7" orient="auto-start-reverse" refX="9" refY="5" viewBox="0 0 10 10"><path fill="#555" d="M 0 0 L 10 5 L 0 10 z"/></marker><rect width="110" height="36" x="60" y="10" fill="#f5f5f5" stroke="#888" stroke-width="1" rx="3"/><text x="115" y="33" text-anchor="middle">agent-e2e</text><rect width="110" height="36" x="260" y="10" fill="#f5f5f5" stroke="#888" stroke-width="1" rx="3"/><text x="315" y="33" text-anchor="middle">tickets-e2e</text><rect width="90" height="36" x="80" y="90" fill="#f5f5f5" stroke="#888" stroke-width="1" rx="3"/><text x="125" y="113" text-anchor="middle">agent</text><rect width="90" height="36" x="270" y="90" fill="#f5f5f5" stroke="#888" stroke-width="1" rx="3"/><text x="315" y="113" text-anchor="middle">tickets</text><rect width="90" height="36" x="10" y="180" fill="#f5f5f5" stroke="#888" stroke-width="1" rx="3"/><text x="55" y="203" text-anchor="middle">agent-api</text><rect width="90" height="36" x="140" y="180" fill="#f5f5f5" stroke="#888" stroke-width="1" rx="3"/><text x="185" y="203" text-anchor="middle">api</text><ellipse cx="320" cy="198" fill="#e8e8e8" stroke="#888" stroke-width="1" rx="60" ry="20"/><text x="320" y="203" text-anchor="middle">ticket-list</text><ellipse cx="210" cy="295" fill="#e8e8e8" stroke="#888" stroke-width="1" rx="55" ry="20"/><text x="210" y="300" text-anchor="middle">data</text><line x1="115" x2="122" y1="46" y2="88" stroke="#555" stroke-width="1.2" marker-end="url(#arrow)"/><line x1="315" x2="315" y1="46" y2="88" stroke="#555" stroke-width="1.2" marker-end="url(#arrow)"/><line x1="105" x2="70" y1="126" y2="178" stroke="#555" stroke-width="1.2" marker-end="url(#arrow)"/><line x1="145" x2="175" y1="126" y2="178" stroke="#555" stroke-width="1.2" marker-end="url(#arrow)"/><line x1="295" x2="205" y1="126" y2="178" stroke="#555" stroke-width="1.2" marker-end="url(#arrow)"/><line x1="320" x2="320" y1="126" y2="176" stroke="#555" stroke-width="1.2" marker-end="url(#arrow)"/><line x1="75" x2="170" y1="216" y2="285" stroke="#555" stroke-width="1.2" marker-end="url(#arrow)"/><line x1="190" x2="205" y1="216" y2="273" stroke="#555" stroke-width="1.2" marker-end="url(#arrow)"/><line x1="295" x2="248" y1="215" y2="282" stroke="#555" stroke-width="1.2" marker-end="url(#arrow)"/><path fill="none" stroke="#555" stroke-width="1.2" marker-end="url(#arrow)" d="M 355,126 C 415,160 415,280 262,293"/></svg>