<svg xmlns="http://www.w3.org/2000/svg" fill="none" viewBox="0 0 800 290"><style>text{font-family:ui-monospace,&apos;Cascadia Code&apos;,&apos;Source Code Pro&apos;,Menlo,Consolas,monospace}</style><rect width="180" height="36" x="20" y="74" fill="#1E293B" stroke="#475569" stroke-width="1.5" rx="6"/><text x="110" y="97" fill="#94A3B8" font-size="13" text-anchor="middle">src/App.tsx</text><rect width="180" height="36" x="20" y="122" fill="#1E293B" stroke="#475569" stroke-width="1.5" rx="6"/><text x="110" y="145" fill="#94A3B8" font-size="13" text-anchor="middle">src/main.tsx</text><rect width="180" height="36" x="20" y="170" fill="#1E293B" stroke="#475569" stroke-width="1.5" rx="6"/><text x="110" y="193" fill="#94A3B8" font-size="13" text-anchor="middle">vite.config.ts</text><text x="110" y="230" fill="#64748B" font-size="11" font-weight="600" letter-spacing=".05em" text-anchor="middle">DECLARED INPUTS</text><path stroke="#475569" stroke-linecap="round" stroke-width="1.5" d="M200 92 L280 126"/><path stroke="#475569" stroke-linecap="round" stroke-width="1.5" d="M200 140 L280 140"/><path stroke="#475569" stroke-linecap="round" stroke-width="1.5" d="M200 188 L280 154"/><rect width="200" height="70" x="280" y="105" fill="#3B82F6" rx="8"/><text x="380" y="136" fill="#fff" font-size="14" font-weight="600" text-anchor="middle">vite build</text><text x="380" y="156" fill="#BFDBFE" font-size="12" text-anchor="middle">shop:build</text><path stroke="#475569" stroke-linecap="round" stroke-width="1.5" d="M480 126 L560 92"/><path stroke="#475569" stroke-linecap="round" stroke-width="1.5" d="M480 140 L560 140"/><path stroke="#475569" stroke-linecap="round" stroke-width="1.5" d="M480 154 L560 188"/><rect width="220" height="36" x="560" y="74" fill="#1E293B" stroke="#475569" stroke-width="1.5" rx="6"/><text x="670" y="97" fill="#94A3B8" font-size="13" text-anchor="middle">dist/index.html</text><rect width="220" height="36" x="560" y="122" fill="#1E293B" stroke="#475569" stroke-width="1.5" rx="6"/><text x="670" y="145" fill="#94A3B8" font-size="13" text-anchor="middle">dist/assets/*.js</text><rect width="220" height="36" x="560" y="170" fill="#1E293B" stroke="#475569" stroke-width="1.5" rx="6"/><text x="670" y="193" fill="#94A3B8" font-size="13" text-anchor="middle">dist/assets/*.css</text><text x="670" y="230" fill="#64748B" font-size="11" font-weight="600" letter-spacing=".05em" text-anchor="middle">DECLARED OUTPUTS</text><rect width="160" height="50" x="310" y="200" fill="#1E293B" stroke="#22C55E" stroke-dasharray="6 3" stroke-width="1.5" rx="8"/><text x="390" y="222" fill="#22C55E" font-size="12" font-weight="600" text-anchor="middle">CACHE KEY</text><text x="390" y="238" fill="#64748B" font-size="11" text-anchor="middle">hash(inputs)</text><path stroke="#22C55E" stroke-dasharray="4 3" stroke-linecap="round" stroke-width="1" d="M200 206 L310 220" opacity=".6"/><text x="390" y="282" fill="#64748B" font-size="10" font-style="italic" text-anchor="middle">same inputs = cache hit = replay outputs</text></svg>